<?xml version="1.0" encoding="UTF-8" standalone="no"?>
<svg width="90px" height="90px" viewBox="0 0 90 90" version="1.1" xmlns="http://www.w3.org/2000/svg" xmlns:xlink="http://www.w3.org/1999/xlink" xmlns:sketch="http://www.bohemiancoding.com/sketch/ns">
    <!-- Generator: Sketch 3.0.4 (8054) - http://www.bohemiancoding.com/sketch -->
    <title>to_circ._w_x2F__back._circ.</title>
    <desc>Created with Sketch.</desc>
    <defs></defs>
    <g id="Page-1" stroke="none" stroke-width="1" fill="none" fill-rule="evenodd" sketch:type="MSPage">
        <g id="Artboard-1" sketch:type="MSArtboardGroup" transform="translate(-18.000000, -18.000000)">
            <g id="clojure" sketch:type="MSLayerGroup" transform="translate(14.000000, 14.000000)">
                <g id="to_circ._w_x2F__back._circ." transform="translate(5.000000, 5.000000)" sketch:type="MSShapeGroup">
                    <circle id="Oval" fill="#FFFFFF" cx="44.3179228" cy="44.3179228" r="44.5179236"></circle>
                    <path d="M44.315,67.884 C46.913,67.879 49.409,67.45 51.745,66.673 C51.196,66.171 50.672,65.636 50.195,65.033 C47.028,60.994 45.26,55.075 42.465,45.123 C42.022,46.083 41.533,47.161 41.027,48.31 C39.237,52.366 37.256,57.299 36.531,60.46 C36.271,61.586 36.11,62.981 36.113,64.527 C36.113,65.139 36.147,65.782 36.198,66.437 C38.728,67.369 41.461,67.879 44.315,67.884 L44.315,67.884 Z" id="Shape" fill="#91DC47"></path>
                    <path d="M20.353,14.813 C25.534,14.828 29.607,16.434 31.561,17.533 C32.033,17.805 32.48,18.098 32.92,18.399 C36.407,16.863 40.26,16.004 44.315,16.004 C59.955,16.006 72.632,28.68 72.634,44.319 L72.632,44.319 C72.632,52.205 69.407,59.334 64.208,64.467 C65.484,64.61 66.846,64.698 68.235,64.692 C73.171,64.694 78.506,63.605 82.506,60.241 C85.113,58.044 87.299,54.827 88.511,50.004 C88.748,48.142 88.884,46.247 88.884,44.32 C88.884,19.706 68.931,-0.251 44.316,-0.251 C29.39,-0.251 16.187,7.096 8.098,18.362 C12.307,15.734 16.603,14.78 20.353,14.813 L20.353,14.813 Z" id="Shape" fill="#5881D8"></path>
                    <path d="M68.623,71.563 C67.276,71.563 66.013,71.491 64.843,71.348 C61.722,70.956 59.146,70.485 56.893,69.69 C53.103,71.572 48.834,72.635 44.316,72.635 C28.678,72.635 16.001,59.96 16,44.319 C16.001,35.832 19.74,28.224 25.654,23.034 C24.073,22.653 22.423,22.429 20.737,22.432 C12.429,22.511 3.658,27.108 0.008,39.525 C-0.16,41.1 -0.252,42.699 -0.252,44.319 C-0.252,68.934 19.703,88.889 44.316,88.889 C59.389,88.889 72.705,81.399 80.771,69.945 C76.409,71.032 72.214,71.552 68.623,71.563 L68.623,71.563 Z" id="Shape" fill="#63B132"></path>
                    <path d="M39.906,37.911 C38.401,34.133 36.226,29.745 34.286,27.758 C33.298,26.72 32.097,25.822 30.771,25.057 C24.721,29.32 20.764,36.35 20.749,44.319 C20.764,52.169 24.603,59.108 30.5,63.389 C31.946,57.364 35.572,51.847 41.008,40.789 C40.686,39.902 40.318,38.931 39.906,37.911 L39.906,37.911 Z" id="Shape" fill="#91DC47"></path>
                    <path d="M56.467,62.711 C56.741,62.848 57.365,63.07 58.234,63.316 C64.075,59.029 67.87,52.123 67.884,44.318 L67.882,44.318 C67.86,31.307 57.33,20.779 44.315,20.754 C41.729,20.759 39.243,21.185 36.916,21.957 C41.701,27.411 44.002,35.206 46.228,43.732 C46.229,43.735 46.231,43.738 46.232,43.742 C46.236,43.748 46.944,46.11 48.159,49.242 C49.366,52.37 51.086,56.242 52.961,59.063 C54.191,60.954 55.545,62.312 56.467,62.711 L56.467,62.711 Z" id="Shape" fill="#90B4FE"></path>
                </g>
            </g>
        </g>
    </g>
</svg>