<svg viewBox="0 0 112 113" xmlns="http://www.w3.org/2000/svg"><defs><linearGradient x1="0%" y1="0%" x2="74.521%" y2="64.11%" id="a"><stop stop-color="#5A9FD4" offset="0%"/><stop stop-color="#306998" offset="100%"/></linearGradient><linearGradient x1="50%" y1="82.276%" x2="23.443%" y2="44.914%" id="b"><stop stop-color="#FFD43B" offset="0%"/><stop stop-color="#FFE873" offset="100%"/></linearGradient></defs><g><path d="M55.51.398c-4.584.021-8.961.412-12.813 1.094-11.346 2.005-13.406 6.2-13.406 13.938v10.219h26.813v3.406h-36.876c-7.792 0-14.616 4.684-16.75 13.594-2.462 10.213-2.571 16.586 0 27.25 1.906 7.938 6.458 13.594 14.25 13.594h9.219v-12.25c0-8.85 7.657-16.656 16.75-16.656h26.781c7.455 0 13.406-6.138 13.406-13.625v-25.531c0-7.266-6.13-12.725-13.406-13.938-4.606-.767-9.385-1.115-13.969-1.094zm-14.5 8.219c2.77 0 5.031 2.299 5.031 5.125 0 2.816-2.262 5.094-5.031 5.094-2.779 0-5.031-2.277-5.031-5.094 0-2.826 2.252-5.125 5.031-5.125z" fill="url(#a)"/><path d="M86.229 29.054v11.906c0 9.231-7.826 17-16.75 17h-26.781c-7.336 0-13.406 6.278-13.406 13.625v25.531c0 7.266 6.319 11.54 13.406 13.625 8.487 2.496 16.626 2.947 26.781 0 6.75-1.954 13.406-5.888 13.406-13.625v-10.219h-26.781v-3.406h40.187c7.792 0 10.696-5.435 13.406-13.594 2.799-8.399 2.68-16.476 0-27.25-1.926-7.757-5.604-13.594-13.406-13.594h-10.063zm-15.063 64.656c2.779 0 5.031 2.277 5.031 5.094 0 2.826-2.252 5.125-5.031 5.125-2.77 0-5.031-2.299-5.031-5.125 0-2.816 2.262-5.094 5.031-5.094z" fill="url(#b)"/></g></svg>
